<svg xmlns="http://www.w3.org/2000/svg" viewBox="0 0 175.42 219.14">
    <title>Application Settings</title>
    <path d="M183.42,129.89l-12-20.78-21.19,5.3-.67.39a59.91,59.91,0,0,0-22.56-13V101l-6-21H97l-6,21v.75a59.91,59.91,0,0,0-22.56,13l-.67-.39-21.19-5.3-12,20.78,15.19,15.7.67.38a59.67,59.67,0,0,0,0,26.06l-.67.38-15.19,15.7,12,20.78,21.19-5.3.67-.39A59.91,59.91,0,0,0,91,216.25V217l6,21h24l6-21v-.75a59.91,59.91,0,0,0,22.56-13.05l.67.39,21.19,5.3,12-20.78-15.19-15.7-.67-.38a59.67,59.67,0,0,0,0-26.06l.67-.38ZM127,190.16h0a35.88,35.88,0,0,1-36,0h0a36,36,0,0,1,0-62.32h0a35.88,35.88,0,0,1,36,0h0a36,36,0,0,1,0,62.32Z"
        transform="translate(-34.58 -18.86)" />
    <path d="M199.75,47h-.4a29.94,29.94,0,0,0-2.62-5.93,30.41,30.41,0,0,0-3.88-5.29l.19-.33,2.66-10.59-10.4-6-7.84,7.59-.2.34a29.83,29.83,0,0,0-13,0l-.19-.33-7.59-7.16-10.4,6,2.41,10.16.18.33A30.06,30.06,0,0,0,142.15,47h-.4L131,50.07v12L141.75,65h.36a30.35,30.35,0,0,0,2.66,6.07,30.71,30.71,0,0,0,3.88,5.28l-.19.33-2.66,10.6,10.4,6,7.84-7.6.2-.33a30.14,30.14,0,0,0,13,0l.19.32,8.09,8,10.4-6-2.91-11-.18-.32A29.94,29.94,0,0,0,199.38,65h.37L210,62.07v-12Zm-13.42,18a17.83,17.83,0,0,1-15.57,9h0a17.94,17.94,0,0,1-15.58-9l0,0h-.07a18,18,0,0,1,0-17.91l.05-.09a18,18,0,0,1,15.52-9h0a18,18,0,0,1,15.54,9,.63.63,0,0,0,0,.09,18,18,0,0,1,0,18h0Z"
        transform="translate(-34.58 -18.86)" />
</svg>