<svg xmlns="http://www.w3.org/2000/svg" width="100%" height="80%" viewBox="0 0 220.76 191.19">
    <title>milestone_icon_pos_Xprotect_corporate</title>
    <path d="M304.53,326.43" transform="translate(-121.89 -127.6)" />
    <path
        d="M313,161.92v-9.64c-.5,0-1,0-1.5.05v-8.5H308.1v-6.42h-29v6.42h-3.35v9l-1.68-.09V225H269v-6h-6.87v-2.45h1.13c1.25,0,2.26-.71,2.26-1.56a1.61,1.61,0,0,0-1.27-1.4,1.41,1.41,0,0,0,0-2.8,1.62,1.62,0,0,0,1.27-1.4c0-.86-1-1.55-2.26-1.55h-1.35l-15.5-23.43-15.49,23.43h-1.35c-1.25,0-2.26.69-2.26,1.55a1.63,1.63,0,0,0,1.28,1.4,1.41,1.41,0,0,0,0,2.8,1.62,1.62,0,0,0-1.28,1.4c0,.85,1,1.56,2.26,1.56h1.15V219h-6.88v6h-5.19v-4.29h-9v-4.46H176.6v4.46h-3.68V150.39h-9v-7.66H148.57V127.6h-2.33v15.13H130.86v7.66h-9v168.4H342.64V161.92ZM135.91,299.38h-6.74v-6.56h6.74Zm0-10.39h-6.74v-6.56h6.74Zm0-10.39h-6.74V272h6.74Zm0-10.38h-6.74v-6.56h6.74Zm0-10.39h-6.74v-6.57h6.74Zm0-10.39h-6.74v-6.56h6.74Zm0-10.38h-6.74V230.5h6.74Zm0-10.39h-6.74v-6.58h6.74Zm0-10.4h-6.74v-6.55h6.74Zm0-10.39h-6.74v-6.56h6.74Zm0-10.38h-6.74v-6.57h6.74Zm0-10.39h-6.74v-6.56h6.74Zm0-10.39h-6.74v-6.56h6.74Zm0-10.67h-6.74V157.5h6.74Zm10,135.33h-6.73v-6.56h6.73Zm0-10.39h-6.73v-6.56h6.73Zm0-10.39h-6.73V272h6.73Zm0-10.38h-6.73v-6.56h6.73Zm0-10.39h-6.73v-6.57h6.73Zm0-10.39h-6.73v-6.56h6.73Zm0-10.38h-6.73V230.5h6.73Zm0-10.39h-6.73v-6.58h6.73Zm0-10.4h-6.73v-6.55h6.73Zm0-10.39h-6.73v-6.56h6.73Zm0-10.38h-6.73v-6.57h6.73Zm0-10.39h-6.73v-6.56h6.73Zm0-10.39h-6.73v-6.56h6.73Zm0-10.67h-6.73V157.5h6.73Zm10,135.33h-6.72v-6.56h6.72Zm0-10.39h-6.72v-6.56h6.72Zm0-10.39h-6.72V272h6.72Zm0-10.38h-6.72v-6.56h6.72Zm0-10.39h-6.72v-6.57h6.72Zm0-10.39h-6.72v-6.56h6.72Zm0-10.38h-6.72V230.5h6.72Zm0-10.39h-6.72v-6.58h6.72Zm0-10.4h-6.72v-6.55h6.72Zm0-10.39h-6.72v-6.56h6.72Zm0-10.38h-6.72v-6.57h6.72Zm0-10.39h-6.72v-6.56h6.72Zm0-10.39h-6.72v-6.56h6.72Zm0-10.67h-6.72V157.5h6.72Zm10,135.33h-6.72v-6.56h6.72Zm0-10.39h-6.72v-6.56h6.72Zm0-10.39h-6.72V272h6.72Zm0-10.38h-6.72v-6.56h6.72Zm0-10.39h-6.72v-6.57h6.72Zm0-10.39h-6.72v-6.56h6.72Zm0-10.38h-6.72V230.5h6.72Zm0-10.39h-6.72v-6.58h6.72Zm0-10.4h-6.72v-6.55h6.72Zm0-10.39h-6.72v-6.56h6.72Zm0-10.38h-6.72v-6.57h6.72Zm0-10.39h-6.72v-6.56h6.72Zm0-10.39h-6.72v-6.56h6.72Zm0-10.67h-6.72V157.5h6.72Zm15.73,143.44H174.9v-3.83h6.73Zm0-6.06H174.9v-3.82h6.73Zm0-6H174.9v-3.82h6.73Zm0-6H174.9v-3.83h6.73Zm0-6.05H174.9v-3.83h6.73Zm0-6.06H174.9v-3.83h6.73Zm0-6.05H174.9v-3.82h6.73Zm0-6.05H174.9v-3.82h6.73Zm0-6H174.9v-3.83h6.73Zm0-6.05H174.9v-3.84h6.73Zm0-6.05H174.9v-3.82h6.73Zm0-6.05H174.9v-3.82h6.73Zm0-6H174.9v-3.81h6.73Zm0-6.21H174.9v-3.82h6.73Zm10,78.8H184.9v-3.83h6.73Zm0-6.06H184.9v-3.82h6.73Zm0-6H184.9v-3.82h6.73Zm0-6H184.9v-3.83h6.73Zm0-6.05H184.9v-3.83h6.73Zm0-6.06H184.9v-3.83h6.73Zm0-6.05H184.9v-3.82h6.73Zm0-6.05H184.9v-3.82h6.73Zm0-6H184.9v-3.83h6.73Zm0-6.05H184.9v-3.84h6.73Zm0-6.05H184.9v-3.82h6.73Zm0-6.05H184.9v-3.82h6.73Zm0-6H184.9v-3.81h6.73Zm0-6.21H184.9v-3.82h6.73Zm10,78.8h-6.73v-3.83h6.73Zm0-6.06h-6.73v-3.82h6.73Zm0-6h-6.73v-3.82h6.73Zm0-6h-6.73v-3.83h6.73Zm0-6.05h-6.73v-3.83h6.73Zm0-6.06h-6.73v-3.83h6.73Zm0-6.05h-6.73v-3.82h6.73Zm0-6.05h-6.73v-3.82h6.73Zm0-6h-6.73v-3.83h6.73Zm0-6.05h-6.73v-3.84h6.73Zm0-6.05h-6.73v-3.82h6.73Zm0-6.05h-6.73v-3.82h6.73Zm0-6h-6.73v-3.81h6.73Zm0-6.21h-6.73v-3.82h6.73Zm10,78.8H204.9v-3.83h6.74Zm0-6.06H204.9v-3.82h6.74Zm0-6H204.9v-3.82h6.74Zm0-6H204.9v-3.83h6.74Zm0-6.05H204.9v-3.83h6.74Zm0-6.06H204.9v-3.83h6.74Zm0-6.05H204.9v-3.82h6.74Zm0-6.05H204.9v-3.82h6.74Zm0-6H204.9v-3.83h6.74Zm0-6.05H204.9v-3.84h6.74Zm0-6.05H204.9v-3.82h6.74Zm0-6.05H204.9v-3.82h6.74Zm0-6H204.9v-3.81h6.74Zm0-6.21H204.9v-3.82h6.74ZM229,312.22h-6.94v-2.06H229Zm0-5.72h-6.94v-2.08H229Zm0-5.76h-6.94v-2.05H229Zm0-5.74h-6.94v-2.06H229Zm0-5.73h-6.94v-2.06H229Zm0-5.74h-6.94v-2.06H229Zm0-5.74h-6.94v-2.07H229Zm0-5.75h-6.94V270H229Zm0-5.74h-6.94v-2.07H229Zm0-5.74h-6.94V258.5H229Zm0-5.74h-6.94v-2.07H229Zm0-5.74h-6.94V247H229Zm0-5.74h-6.94v-2.07H229Zm0-5.75h-6.94v-2.05H229Zm0-6.08h-6.94v-2.07H229Zm10.73,80.71h-6.95v-2.06h6.95Zm0-5.72h-6.95v-2.08h6.95Zm0-5.76h-6.95v-2.05h6.95Zm0-5.74h-6.95v-2.06h6.95Zm0-5.73h-6.95v-2.06h6.95Zm0-5.74h-6.95v-2.06h6.95Zm0-5.74h-6.95v-2.07h6.95Zm0-5.75h-6.95V270h6.95Zm0-5.74h-6.95v-2.07h6.95Zm0-5.74h-6.95V258.5h6.95Zm0-5.74h-6.95v-2.07h6.95Zm0-5.74h-6.95V247h6.95Zm0-5.74h-6.95v-2.07h6.95Zm0-5.75h-6.95v-2.05h6.95Zm0-6.08h-6.95v-2.07h6.95Zm10.71,80.71H243.5v-2.06h6.94Zm0-5.72H243.5v-2.08h6.94Zm0-5.76H243.5v-2.05h6.94Zm0-5.74H243.5v-2.06h6.94Zm0-5.73H243.5v-2.06h6.94Zm0-5.74H243.5v-2.06h6.94Zm0-5.74H243.5v-2.07h6.94Zm0-5.75H243.5V270h6.94Zm0-5.74H243.5v-2.07h6.94Zm0-5.74H243.5V258.5h6.94Zm0-5.74H243.5v-2.07h6.94Zm0-5.74H243.5V247h6.94Zm0-5.74H243.5v-2.07h6.94Zm0-5.75H243.5v-2.05h6.94Zm0-6.08H243.5v-2.07h6.94Zm10.74,80.71h-7v-2.06h7Zm0-5.72h-7v-2.08h7Zm0-5.76h-7v-2.05h7Zm0-5.74h-7v-2.06h7Zm0-5.73h-7v-2.06h7Zm0-5.74h-7v-2.06h7Zm0-5.74h-7v-2.07h7Zm0-5.75h-7V270h7Zm0-5.74h-7v-2.07h7Zm0-5.74h-7V258.5h7Zm0-5.74h-7v-2.07h7Zm0-5.74h-7V247h7Zm0-5.74h-7v-2.07h7Zm0-5.75h-7v-2.05h7Zm0-6.08h-7v-2.07h7Zm.91-7.08H230.75v-2.14h31.34Zm9.82,87.79h-7v-2.06h7Zm0-5.72h-7v-2.08h7Zm0-5.76h-7v-2.05h7Zm0-5.74h-7v-2.06h7Zm0-5.73h-7v-2.06h7Zm0-5.74h-7v-2.06h7Zm0-5.74h-7v-2.07h7Zm0-5.75h-7V270h7Zm0-5.74h-7v-2.07h7Zm0-5.74h-7V258.5h7Zm0-5.74h-7v-2.07h7Zm0-5.74h-7V247h7Zm0-5.74h-7v-2.07h7Zm0-5.75h-7v-2.05h7Zm0-6.08h-7v-2.07h7ZM293.81,212a10.85,10.85,0,0,1-15,0v-3a11,11,0,0,0,15,0Zm0-7.33a10.9,10.9,0,0,1-15,0v-3a11,11,0,0,0,15,0Zm0-7.34a10.87,10.87,0,0,1-15,0v-3a11,11,0,0,0,15,0Zm0-7.33a10.85,10.85,0,0,1-15,0v-3a11,11,0,0,0,15,0Zm0-7.34a10.85,10.85,0,0,1-15,0v-3a11,11,0,0,0,15,0Zm0-7.34a10.87,10.87,0,0,1-15,0v-3a11,11,0,0,0,15,0Zm0-7.33a10.87,10.87,0,0,1-15,0v-3a10.93,10.93,0,0,0,15,0Zm0-7.34a10.87,10.87,0,0,1-15,0v-3a10.93,10.93,0,0,0,15,0Zm29.63,145.32h-7.52v-7.66h7.52Zm0-10.71h-7.52v-7.64h7.52Zm0-10.68h-7.52v-7.66h7.52Zm0-10.71h-7.52v-7.65h7.52Zm0-10.7h-7.52v-7.65h7.52Zm0-10.7h-7.52v-7.65h7.52Zm0-10.7h-7.52V234.1h7.52Zm0-10.7h-7.52v-7.65h7.52Zm0-10.71h-7.52v-7.64h7.52Zm0-10.68h-7.52V202h7.52Zm0-10.7h-7.52v-7.66h7.52Zm0-10.71h-7.52v-7.65h7.52Zm0-10.69h-7.52V169.9h7.52Zm13.09,128.39H329v-7.66h7.53Zm0-10.71H329v-7.64h7.53Zm0-10.68H329v-7.66h7.53Zm0-10.71H329v-7.65h7.53Zm0-10.7H329v-7.65h7.53Zm0-10.7H329v-7.65h7.53Zm0-10.7H329V234.1h7.53Zm0-10.7H329v-7.65h7.53Zm0-10.71H329v-7.64h7.53Zm0-10.68H329V202h7.53Zm0-10.7H329v-7.66h7.53Zm0-10.71H329v-7.65h7.53Zm0-10.69H329V169.9h7.53Z"
        transform="translate(-121.89 -127.6)" />
</svg>