<svg xmlns="http://www.w3.org/2000/svg" viewBox="0 0 242.18 178.57" width="100%" height="100%">
    <path d="M347.48,213.35c3.19-.9,5.36-2.56,5.36-4.48v-6.72c-2-4.46-7.09-9.65-13.43-14.71a132.59,132.59,0,0,0-11.29-8v-9.71a7.06,7.06,0,0,0-7-7.1h-9.52v-11c0-3.77-2.6-6.82-5.82-6.82h-148c-3.22,0-5.83,3.05-5.83,6.82v11h-9.51a7.07,7.07,0,0,0-7,7.1v9.71a134.2,134.2,0,0,0-11.29,8c-6.35,5.06-11.42,10.25-13.44,14.71v6.72c0,2.87,4.74,5.18,10.59,5.18s10.59-2.31,10.59-5.18v-6.72h8.79V323.33H313V213.94c4.74-.52,8.31-2.59,8.31-5.07v-6.72h10.41v6.72c0,2.87,4.74,5.18,10.57,5.18l.49,0M228.28,300.57H156.85v-86.9c3.85-.8,6.54-2.62,6.54-4.8v-3.61h10.42v3.61c0,2.87,4.73,5.18,10.58,5.18S195,211.74,195,208.87v-3.61h10.42v3.61c0,2.87,4.72,5.18,10.57,5.18s10.58-2.31,10.58-5.18v-3.61h1.74Zm70.13,16.1H255.36V274.73h43.05ZM255.36,267V212.34c1.7-.92,2.75-2.12,2.75-3.47v-6.72h10.42v6.72c0,2.87,4.74,5.18,10.57,5.18s10.6-2.31,10.6-5.18v-6.72h8.71V267Z" 
        transform="translate(-110.65 -144.76)" 
    />
</svg>