<svg xmlns="http://www.w3.org/2000/svg" viewBox="0 0 288.69 169.86" width="100%" height="100%">
    <path d="M232.22,233.26" transform="translate(-87.87 -148.33)" />
    <path d="M232.22,233.26" transform="translate(-87.87 -148.33)" />
    <path
        d="M291.12,192.62H271.7V167.91a84.53,84.53,0,0,1,19.42,6.75Zm0,38.83H271.7V201.68h19.42Zm0,37.55H271.7V239.22h19.42Zm0,40.13H271.7V276.77h19.42ZM265.23,192.62H247.11v-29a125.62,125.62,0,0,1,18.12,2.85Zm0,38.83H247.1V201.68h18.13Zm0,37.55H247.1V239.22h18.13Zm0,40.13H247.1V276.77h18.13Zm-23.3-116.51H222.51V163.14c2.59-.17,6.52-.26,9.66-.26s5.87.09,9.76.26Zm0,38.83H222.51V201.68h19.42Zm0,37.55H222.51V239.22h19.42ZM216,192.62H197.91v-26.2A125.69,125.69,0,0,1,216,163.58Zm0,38.83H197.91V201.68H216ZM216,269H197.91V239.22H216Zm0,40.13H197.91V276.77H216ZM191.44,192.62H172v-18a172.73,172.73,0,0,1,19.42-6.73Zm0,38.83H172V201.68h19.42Zm0,37.55H172V239.22h19.42Zm0,40.13H172V276.77h19.42Zm-46.61-60.84h10.36V269H144.83Zm0-25.9h10.36v19.42H144.83Zm-24.59,25.9h10.35V269H120.24Zm0-25.9h10.35v19.42H120.24Zm-24.6,25.9H106V269H95.64Zm0-25.9H106v19.42H95.64Zm262.8,25.9H368.8V269H358.44Zm0-25.9H368.8v19.42H358.44Zm-24.6,25.9H344.2V269H333.84Zm0-25.9H344.2v19.42H333.84Zm-24.59,25.9H319.6V269H309.25Zm0-25.9H319.6v19.42H309.25Zm59.55,86.74V283.24H297.6v-6.47h77.67V214.63H297.6V177.91a61.16,61.16,0,0,1,7,5l9.15-11.24C296,157.05,265.41,148.33,232,148.33S168.19,157,150.4,171.57l9.24,11.26a62,62,0,0,1,7.2-5v36.77h-44V195.21h19.42V177.08H99.52v18.13h16.83v19.42H89.17v62.14h77.67v6.47H95.64v25.89H87.87v9.06H222.51V276.77h19.42v41.42H376.56v-9.06Z"
        transform="translate(-87.87 -148.33)" />
</svg>